<?xml version="1.0" encoding="UTF-8"?>
<svg id="Layer_1" data-name="Layer 1" xmlns="http://www.w3.org/2000/svg" xmlns:xlink="http://www.w3.org/1999/xlink" viewBox="0 0 792 612">
  <defs>
    <style>
      .cls-1 {
        font-family: ErasITC-Bold, 'Eras Bold ITC';
        font-size: 136.48px;
        font-weight: 700;
      }

      .cls-1, .cls-2 {
        fill: #043153;
      }

      .cls-3 {
        fill: #c4882f;
        font-family: SegoeUIHistoric, 'Segoe UI Historic';
        font-size: 53px;
      }

      .cls-4 {
        letter-spacing: .04em;
      }

      .cls-5 {
        fill: url(#linear-gradient);
      }
    </style>
    <linearGradient id="linear-gradient" x1="551.47" y1="72.44" x2="419.3" y2="178.17" gradientUnits="userSpaceOnUse">
      <stop offset="0" stop-color="#e1bb5c"/>
      <stop offset=".11" stop-color="#9c5e26"/>
      <stop offset=".29" stop-color="#f9e37f"/>
      <stop offset=".34" stop-color="#ebcc6b"/>
      <stop offset=".46" stop-color="#ca9339"/>
      <stop offset=".49" stop-color="#c1832b"/>
      <stop offset=".73" stop-color="#f8d871"/>
      <stop offset=".84" stop-color="#fcde77"/>
      <stop offset=".91" stop-color="#fadc75"/>
      <stop offset=".94" stop-color="#f5d571"/>
      <stop offset=".96" stop-color="#ecc969"/>
      <stop offset=".97" stop-color="#e0b85e"/>
      <stop offset=".98" stop-color="#cfa24f"/>
      <stop offset=".99" stop-color="#bb883d"/>
      <stop offset="1" stop-color="#ac7330"/>
    </linearGradient>
  </defs>
  <text class="cls-1" transform="translate(161.2 387.79)"><tspan x="0" y="0">Ember</tspan></text>
  <text class="cls-3" transform="translate(167.75 442.52) scale(1.1 1)"><tspan x="0" y="0">Business se</tspan><tspan class="cls-4" x="263.11" y="0">r</tspan><tspan x="283.66" y="0">vices</tspan></text>
  <g>
    <path class="cls-5" d="M409.25,211.05c2.16-4.08,4.58-8.06,6.62-12.21.74-1.5,1.45-3.19,2.1-4.6,3.08-6.7,6.48-14.46,7.83-21.7,1.9-10.15-3.27-18.83-4.09-28.52-.4-4.73.4-15.42,2.87-19.43,13.87-22.51,54.01-36.63,73.57-57.96,1.2-1.3,1.78-3.29,3.56-3.82-1.68,12.34-8.05,23.93-15.74,33.59-.87,1.09-6.15,5.25-3.22,6.59,4.8,2.21,9.12-7.5,11.82-10.39.35-.38,3.6-3.25,3.83-3.36.97-.43,3.86.55,4.19,1.52l.55,73.56-4.2-10.8c-4.83-11.47-14.36-20.63-27.74-17.57-20.76,4.75-38.5,42.09-49.54,59.13-1.34,2.07-10.9,16.77-11.93,16.91-.18-.3-.28-.67-.48-.95Z"/>
    <g>
      <path class="cls-2" d="M345.86,283.5l9.23-3.4c38.93-17.08,73.83-75.57,95.97-111.82,18.85-30.87,39.04-16,39.45-14.92.27.72-3.67,12.88-4.29,14.78-7.54,23.19-17.02,46.99-26.2,69.6-4.08,10.04-8.28,21.73-13.02,31.31-2.96,5.99-10.2,14.45-17.48,14.45h-83.65Z"/>
      <path class="cls-2" d="M298.52,275.96c23.38-12.8,44.65-34.64,63.07-53.7,7.56-7.83,14.57-16.25,22.43-23.81,1.96-1.02,3.84-1.03,5.87-.23,4.16,1.64,11.97,8.89,16.34,11.78,1.09.72,2.2,1.73,3.49,1.99-.18-.3-.28-.67-.48-.95-8.08-11.58-18.45-22.46-26.91-33.86-4.63-6.45-8.62-2.24-12.64,2.18-5.69,6.25-10.63,13.89-15.75,20.48-17.85,22.96-36.98,49.82-57.89,69.85-4.88,4.67-10.31,8.37-15.37,12.72-.34.3-.89-.02-.61,1.09h64.11c.51,0,7.82-4.18,8.96-4.86,18.48-10.97,32.4-29.65,43.85-47.14,1.08-1.64,6.77-9.38,6.47-10.58-2.2-1.97-12.84-10.09-15.04-10.21-1.94-.1-4.38,2.24-5.89,3.43-4.49,3.55-8.18,8.07-12.38,11.93-21.27,19.55-53.53,48.02-81.86,55.01-.02,0-.03,0-.05-.01,3.26-1.91,6.87-3.25,10.25-5.1Z"/>
    </g>
  </g>
</svg>