<?xml version="1.0" encoding="UTF-8"?>
<svg id="Layer_1" data-name="Layer 1" xmlns="http://www.w3.org/2000/svg" xmlns:xlink="http://www.w3.org/1999/xlink" viewBox="0 0 2596.13 326.53">
  <defs>
    <style>
      .cls-1 {
        fill: #c4882f;
      }

      .cls-2 {
        fill: #fff;
        font-family: ErasITC-Bold, 'Eras Bold ITC';
        font-size: 187px;
        font-weight: 700;
      }

      .cls-3 {
        fill: url(#linear-gradient);
      }
    </style>
    <linearGradient id="linear-gradient" x1="86.49" y1="43.21" x2="171.92" y2="274.85" gradientUnits="userSpaceOnUse">
      <stop offset="0" stop-color="#e1bb5c"/>
      <stop offset=".11" stop-color="#9c5e26"/>
      <stop offset=".29" stop-color="#f9e37f"/>
      <stop offset=".34" stop-color="#ebcc6b"/>
      <stop offset=".46" stop-color="#ca9339"/>
      <stop offset=".49" stop-color="#c1832b"/>
      <stop offset=".73" stop-color="#f8d871"/>
      <stop offset=".84" stop-color="#fcde77"/>
      <stop offset=".91" stop-color="#fadc75"/>
      <stop offset=".94" stop-color="#f5d571"/>
      <stop offset=".96" stop-color="#ecc969"/>
      <stop offset=".97" stop-color="#e0b85e"/>
      <stop offset=".98" stop-color="#cfa24f"/>
      <stop offset=".99" stop-color="#bb883d"/>
      <stop offset="1" stop-color="#ac7330"/>
    </linearGradient>
  </defs>
  <path class="cls-3" d="M141.18,36.08c-9.77,30.52,3.63,50.97,28.76,71.02,37.3,29.76,66.57,43.52,62.21,94.37-2.18,25.42-27.09,57.21-55.88,65-.59.16-1.88.27-1.7-.48,50.33-59.59,7.94-90.13,7.94-90.13.95,10.04-3.26,41.01-16,43.94,0,0,11.34-44.26-16.12-67.03-5.23-4.34-7.04-5.29-7.49-5.46-2.45-.9-1.53,1.3-1.43,2.22,3.71,33.98-19.13,33.35-38.85,54.37-17.05,18.18-15.94,43.15,1.74,60.58-69.66-26.74-64.75-98.72-36.81-149.95,2.96,1.24-8.27,27.23,15.96,39.84-2.97-42.59,3.75-79.06,43.32-110.33,1.83-1.44,12.74-9.22,14.35-7.97Z"/>
  <text class="cls-2" transform="translate(290.94 236.15)"><tspan x="0" y="0">EMBER</tspan></text>
  <g>
    <path class="cls-1" d="M1051.48,233.93v-121.71h40.24c12.23,0,21.93,2.58,29.1,7.72,7.17,5.15,10.75,11.85,10.75,20.12,0,6.9-2.17,12.9-6.51,17.99s-10.32,8.71-17.95,10.86v.34c9.53.96,17.16,4.06,22.88,9.29,5.72,5.24,8.58,12.04,8.58,20.41,0,10.41-4.34,18.84-13.02,25.29-8.68,6.45-19.63,9.68-32.85,9.68h-41.23ZM1068.05,125.12v39.3h16.97c9.08,0,16.21-1.88,21.4-5.64,5.19-3.76,7.79-9.07,7.79-15.91,0-11.83-9.04-17.74-27.13-17.74h-19.04ZM1068.05,177.23v43.8h22.49c9.73,0,17.28-1.98,22.64-5.94,5.36-3.96,8.04-9.39,8.04-16.3,0-14.37-11.38-21.56-34.13-21.56h-19.04Z"/>
    <path class="cls-1" d="M1246.78,233.93h-16.18v-13.75h-.4c-6.71,10.52-17.1,15.79-31.17,15.79-24.07,0-36.1-12.33-36.1-37.01v-51.94h16.08v49.74c0,18.33,8.15,27.5,24.46,27.5,7.89,0,14.38-2.5,19.48-7.51,5.1-5.01,7.64-11.56,7.64-19.65v-50.08h16.18v86.91Z"/>
    <path class="cls-1" d="M1273.31,230.79v-14.94c8.81,5.6,18.51,8.4,29.1,8.4,14.2,0,21.31-4.07,21.31-12.22,0-2.32-.61-4.29-1.82-5.9-1.22-1.61-2.86-3.04-4.93-4.29-2.07-1.24-4.51-2.36-7.3-3.35-2.8-.99-5.8-2.02-9.03-3.1-4.47-1.53-8.4-3.07-11.79-4.63-3.39-1.55-6.21-3.31-8.48-5.26-2.27-1.95-3.98-4.17-5.13-6.66-1.15-2.49-1.73-5.4-1.73-8.74,0-4.07,1.08-7.68,3.25-10.82,2.17-3.14,5.06-5.77,8.68-7.89,3.62-2.12,7.74-3.72,12.38-4.8,4.64-1.07,9.42-1.61,14.35-1.61,8.74,0,16.57,1.3,23.48,3.9v14.09c-7.43-4.19-15.98-6.28-25.65-6.28-3.03,0-5.75.3-8.19.89-2.43.59-4.52,1.43-6.26,2.5-1.74,1.08-3.09,2.36-4.04,3.86-.95,1.5-1.43,3.16-1.43,4.97,0,2.26.48,4.16,1.43,5.69.95,1.53,2.35,2.88,4.19,4.07,1.84,1.19,4.08,2.26,6.71,3.22,2.63.96,5.62,2.01,8.98,3.14,4.47,1.47,8.48,2.99,12.03,4.54,3.55,1.56,6.57,3.31,9.07,5.26,2.5,1.95,4.42,4.2,5.77,6.75,1.35,2.55,2.02,5.57,2.02,9.08,0,4.3-1.1,8.04-3.3,11.2-2.2,3.17-5.15,5.8-8.83,7.89-3.68,2.09-7.93,3.65-12.72,4.67-4.8,1.02-9.83,1.53-15.09,1.53-10.39,0-19.4-1.73-27.03-5.18Z"/>
    <path class="cls-1" d="M1373.43,124.95c-2.89,0-5.36-.85-7.4-2.55-2.04-1.7-3.06-3.85-3.06-6.45s1.02-4.77,3.06-6.49c2.04-1.72,4.5-2.59,7.4-2.59s5.47.86,7.55,2.59c2.07,1.73,3.11,3.89,3.11,6.49s-1.04,4.61-3.11,6.37c-2.07,1.75-4.59,2.63-7.55,2.63ZM1381.32,233.93h-16.18v-86.91h16.18v86.91Z"/>
    <path class="cls-1" d="M1497.91,233.93h-16.18v-49.57c0-18.45-7.83-27.67-23.48-27.67-8.09,0-14.78,2.62-20.07,7.85-5.29,5.23-7.94,11.84-7.94,19.82v49.57h-16.18v-86.91h16.18v14.43h.39c7.63-10.98,18.67-16.47,33.14-16.47,11.05,0,19.5,3.07,25.35,9.21,5.85,6.14,8.78,15.01,8.78,26.61v53.13Z"/>
    <path class="cls-1" d="M1609.57,193.95h-71.31c.26,9.67,3.29,17.14,9.08,22.41,5.79,5.26,13.74,7.89,23.87,7.89,11.38,0,21.83-3.23,31.37-9.68v13.07c-8.88,5.55-20.62,8.32-35.21,8.32s-25.48-3.95-33.63-11.84c-8.15-7.89-12.23-19-12.23-33.31,0-13.52,4.45-24.54,13.37-33.06,8.91-8.52,19.97-12.77,33.19-12.77s23.44,3.68,30.68,11.03c7.23,7.36,10.85,17.57,10.85,30.64v7.3ZM1593,182.16c-.07-8.03-2.32-14.29-6.76-18.76-4.44-4.47-10.6-6.71-18.49-6.71s-14.11,2.35-19.43,7.05-8.61,10.84-9.86,18.42h54.55Z"/>
    <path class="cls-1" d="M1627.91,230.79v-14.94c8.81,5.6,18.51,8.4,29.1,8.4,14.2,0,21.31-4.07,21.31-12.22,0-2.32-.61-4.29-1.82-5.9-1.22-1.61-2.86-3.04-4.93-4.29-2.07-1.24-4.51-2.36-7.3-3.35-2.8-.99-5.8-2.02-9.03-3.1-4.47-1.53-8.4-3.07-11.79-4.63-3.39-1.55-6.21-3.31-8.48-5.26-2.27-1.95-3.98-4.17-5.13-6.66-1.15-2.49-1.73-5.4-1.73-8.74,0-4.07,1.08-7.68,3.25-10.82,2.17-3.14,5.06-5.77,8.68-7.89,3.62-2.12,7.74-3.72,12.38-4.8,4.64-1.07,9.42-1.61,14.35-1.61,8.74,0,16.57,1.3,23.48,3.9v14.09c-7.43-4.19-15.98-6.28-25.65-6.28-3.03,0-5.75.3-8.19.89-2.43.59-4.52,1.43-6.26,2.5-1.74,1.08-3.09,2.36-4.04,3.86-.95,1.5-1.43,3.16-1.43,4.97,0,2.26.48,4.16,1.43,5.69.95,1.53,2.35,2.88,4.19,4.07,1.84,1.19,4.08,2.26,6.71,3.22,2.63.96,5.62,2.01,8.98,3.14,4.47,1.47,8.48,2.99,12.03,4.54,3.55,1.56,6.57,3.31,9.07,5.26,2.5,1.95,4.42,4.2,5.77,6.75,1.35,2.55,2.02,5.57,2.02,9.08,0,4.3-1.1,8.04-3.3,11.2-2.2,3.17-5.15,5.8-8.83,7.89-3.68,2.09-7.93,3.65-12.72,4.67-4.8,1.02-9.83,1.53-15.09,1.53-10.39,0-19.4-1.73-27.03-5.18Z"/>
    <path class="cls-1" d="M1713.63,230.79v-14.94c8.81,5.6,18.51,8.4,29.1,8.4,14.2,0,21.31-4.07,21.31-12.22,0-2.32-.61-4.29-1.82-5.9-1.22-1.61-2.86-3.04-4.93-4.29-2.07-1.24-4.51-2.36-7.3-3.35-2.8-.99-5.8-2.02-9.03-3.1-4.47-1.53-8.4-3.07-11.79-4.63-3.39-1.55-6.21-3.31-8.48-5.26-2.27-1.95-3.98-4.17-5.13-6.66-1.15-2.49-1.73-5.4-1.73-8.74,0-4.07,1.08-7.68,3.25-10.82,2.17-3.14,5.06-5.77,8.68-7.89,3.62-2.12,7.74-3.72,12.38-4.8,4.64-1.07,9.42-1.61,14.35-1.61,8.74,0,16.57,1.3,23.48,3.9v14.09c-7.43-4.19-15.98-6.28-25.65-6.28-3.03,0-5.75.3-8.19.89-2.43.59-4.52,1.43-6.26,2.5-1.74,1.08-3.09,2.36-4.04,3.86-.95,1.5-1.43,3.16-1.43,4.97,0,2.26.48,4.16,1.43,5.69.95,1.53,2.35,2.88,4.19,4.07,1.84,1.19,4.08,2.26,6.71,3.22,2.63.96,5.62,2.01,8.98,3.14,4.47,1.47,8.48,2.99,12.03,4.54,3.55,1.56,6.57,3.31,9.07,5.26,2.5,1.95,4.42,4.2,5.77,6.75,1.35,2.55,2.02,5.57,2.02,9.08,0,4.3-1.1,8.04-3.3,11.2-2.2,3.17-5.15,5.8-8.83,7.89-3.68,2.09-7.93,3.65-12.72,4.67-4.8,1.02-9.83,1.53-15.09,1.53-10.39,0-19.4-1.73-27.03-5.18Z"/>
    <path class="cls-1" d="M1854.68,230.79v-14.94c8.81,5.6,18.51,8.4,29.1,8.4,14.2,0,21.31-4.07,21.31-12.22,0-2.32-.61-4.29-1.82-5.9-1.22-1.61-2.86-3.04-4.93-4.29-2.07-1.24-4.51-2.36-7.3-3.35-2.8-.99-5.8-2.02-9.03-3.1-4.47-1.53-8.4-3.07-11.79-4.63-3.39-1.55-6.21-3.31-8.48-5.26-2.27-1.95-3.98-4.17-5.13-6.66-1.15-2.49-1.73-5.4-1.73-8.74,0-4.07,1.08-7.68,3.25-10.82,2.17-3.14,5.06-5.77,8.68-7.89,3.62-2.12,7.74-3.72,12.38-4.8,4.64-1.07,9.42-1.61,14.35-1.61,8.74,0,16.57,1.3,23.48,3.9v14.09c-7.43-4.19-15.98-6.28-25.65-6.28-3.03,0-5.75.3-8.19.89-2.43.59-4.52,1.43-6.26,2.5-1.74,1.08-3.09,2.36-4.04,3.86-.95,1.5-1.43,3.16-1.43,4.97,0,2.26.48,4.16,1.43,5.69.95,1.53,2.35,2.88,4.19,4.07,1.84,1.19,4.08,2.26,6.71,3.22,2.63.96,5.62,2.01,8.98,3.14,4.47,1.47,8.48,2.99,12.03,4.54,3.55,1.56,6.57,3.31,9.07,5.26,2.5,1.95,4.42,4.2,5.77,6.75,1.35,2.55,2.02,5.57,2.02,9.08,0,4.3-1.1,8.04-3.3,11.2-2.2,3.17-5.15,5.8-8.83,7.89-3.68,2.09-7.93,3.65-12.72,4.67-4.8,1.02-9.83,1.53-15.09,1.53-10.39,0-19.4-1.73-27.03-5.18Z"/>
    <path class="cls-1" d="M2027.69,193.95h-71.31c.26,9.67,3.29,17.14,9.08,22.41,5.79,5.26,13.74,7.89,23.87,7.89,11.38,0,21.83-3.23,31.37-9.68v13.07c-8.88,5.55-20.62,8.32-35.21,8.32s-25.48-3.95-33.63-11.84c-8.15-7.89-12.23-19-12.23-33.31,0-13.52,4.45-24.54,13.37-33.06,8.91-8.52,19.97-12.77,33.19-12.77s23.44,3.68,30.68,11.03c7.23,7.36,10.85,17.57,10.85,30.64v7.3ZM2011.12,182.16c-.07-8.03-2.32-14.29-6.76-18.76-4.44-4.47-10.6-6.71-18.49-6.71s-14.11,2.35-19.43,7.05-8.61,10.84-9.86,18.42h54.55Z"/>
    <path class="cls-1" d="M2104.83,161.11c-2.83-1.87-6.91-2.8-12.23-2.8-6.91,0-12.68,2.8-17.31,8.4s-6.95,13.24-6.95,22.92v44.3h-16.18v-86.91h16.18v17.91h.39c2.3-6.11,5.82-10.88,10.55-14.3,4.74-3.42,10.03-5.14,15.88-5.14,4.21,0,7.43.4,9.67,1.19v14.43Z"/>
    <path class="cls-1" d="M2209.88,147.02l-40.24,86.91h-15.88l-38.27-86.91h17.75l25.65,63.15c1.91,4.64,3.09,8.69,3.55,12.14h.39c.66-4.36,1.71-8.29,3.16-11.8l26.83-63.49h17.06Z"/>
    <path class="cls-1" d="M2235.52,124.95c-2.89,0-5.36-.85-7.4-2.55-2.04-1.7-3.06-3.85-3.06-6.45s1.02-4.77,3.06-6.49c2.04-1.72,4.5-2.59,7.4-2.59s5.47.86,7.55,2.59c2.07,1.73,3.11,3.89,3.11,6.49s-1.04,4.61-3.11,6.37c-2.07,1.75-4.59,2.63-7.55,2.63ZM2243.41,233.93h-16.18v-86.91h16.18v86.91Z"/>
    <path class="cls-1" d="M2345.01,229.94c-7.76,4.02-16.97,6.03-27.62,6.03-14.4,0-26.03-4.03-34.87-12.09-8.85-8.06-13.27-18.52-13.27-31.36,0-14.31,4.77-25.82,14.3-34.5,9.53-8.68,22.26-13.03,38.17-13.03,8.88,0,16.7,1.42,23.48,4.24v14.26c-7.5-4.53-15.52-6.79-24.07-6.79-10.32,0-18.79,3.18-25.4,9.55-6.61,6.37-9.91,14.73-9.91,25.08s3.11,18.22,9.32,24.1c6.21,5.89,14.55,8.83,25.01,8.83,8.81,0,17.1-2.52,24.86-7.55v13.24Z"/>
    <path class="cls-1" d="M2450.65,193.95h-71.31c.26,9.67,3.29,17.14,9.08,22.41,5.79,5.26,13.74,7.89,23.87,7.89,11.38,0,21.83-3.23,31.37-9.68v13.07c-8.88,5.55-20.62,8.32-35.21,8.32s-25.48-3.95-33.63-11.84c-8.15-7.89-12.23-19-12.23-33.31,0-13.52,4.45-24.54,13.37-33.06,8.91-8.52,19.97-12.77,33.19-12.77s23.44,3.68,30.68,11.03c7.23,7.36,10.85,17.57,10.85,30.64v7.3ZM2434.08,182.16c-.07-8.03-2.32-14.29-6.76-18.76-4.44-4.47-10.6-6.71-18.49-6.71s-14.11,2.35-19.43,7.05c-5.33,4.7-8.61,10.84-9.86,18.42h54.55Z"/>
    <path class="cls-1" d="M2469,230.79v-14.94c8.81,5.6,18.51,8.4,29.1,8.4,14.2,0,21.31-4.07,21.31-12.22,0-2.32-.61-4.29-1.82-5.9-1.22-1.61-2.86-3.04-4.93-4.29-2.07-1.24-4.51-2.36-7.3-3.35-2.8-.99-5.8-2.02-9.03-3.1-4.47-1.53-8.4-3.07-11.79-4.63-3.39-1.55-6.21-3.31-8.48-5.26-2.27-1.95-3.98-4.17-5.13-6.66-1.15-2.49-1.73-5.4-1.73-8.74,0-4.07,1.08-7.68,3.25-10.82,2.17-3.14,5.06-5.77,8.68-7.89,3.62-2.12,7.74-3.72,12.38-4.8,4.64-1.07,9.42-1.61,14.35-1.61,8.74,0,16.57,1.3,23.48,3.9v14.09c-7.43-4.19-15.98-6.28-25.65-6.28-3.03,0-5.75.3-8.19.89-2.43.59-4.52,1.43-6.26,2.5-1.74,1.08-3.09,2.36-4.04,3.86-.95,1.5-1.43,3.16-1.43,4.97,0,2.26.48,4.16,1.43,5.69.95,1.53,2.35,2.88,4.19,4.07,1.84,1.19,4.08,2.26,6.71,3.22,2.63.96,5.62,2.01,8.98,3.14,4.47,1.47,8.48,2.99,12.03,4.54,3.55,1.56,6.57,3.31,9.07,5.26,2.5,1.95,4.42,4.2,5.77,6.75,1.35,2.55,2.02,5.57,2.02,9.08,0,4.3-1.1,8.04-3.3,11.2-2.2,3.17-5.15,5.8-8.83,7.89-3.68,2.09-7.93,3.65-12.72,4.67-4.8,1.02-9.83,1.53-15.09,1.53-10.39,0-19.4-1.73-27.03-5.18Z"/>
  </g>
</svg>