<?xml version="1.0" encoding="UTF-8"?>
<svg id="Layer_1" xmlns="http://www.w3.org/2000/svg" version="1.1" xmlns:xlink="http://www.w3.org/1999/xlink" viewBox="0 0 2596.1 326.5">
  <!-- Generator: Adobe Illustrator 30.0.0, SVG Export Plug-In . SVG Version: 2.1.1 Build 123)  -->
  <defs>
    <style>
      .st0 {
        fill: #c1a106;
      }

      .st1 {
        fill: #fff;
      }

      .st2 {
        fill: url(#linear-gradient);
      }

      .st3 {
        fill: #0f172a;
      }
    </style>
    <linearGradient id="linear-gradient" x1="86.5" y1="44.2" x2="171.9" y2="275.9" gradientUnits="userSpaceOnUse">
      <stop offset="0" stop-color="#e1bb5c"/>
      <stop offset=".1" stop-color="#9c5e26"/>
      <stop offset=".3" stop-color="#f9e37f"/>
      <stop offset=".3" stop-color="#ebcc6b"/>
      <stop offset=".5" stop-color="#ca9339"/>
      <stop offset=".5" stop-color="#c1832b"/>
      <stop offset=".7" stop-color="#f8d871"/>
      <stop offset=".8" stop-color="#fcde77"/>
      <stop offset=".9" stop-color="#fadc75"/>
      <stop offset=".9" stop-color="#f5d571"/>
      <stop offset="1" stop-color="#ecc969"/>
      <stop offset="1" stop-color="#e0b85e"/>
      <stop offset="1" stop-color="#cfa24f"/>
      <stop offset="1" stop-color="#bb883d"/>
      <stop offset="1" stop-color="#ac7330"/>
    </linearGradient>
  </defs>
  <rect class="st3" x="0" y="0" width="2596.1" height="326.2"/>
  <path class="st2" d="M141.2,37.1c-9.8,30.5,3.6,51,28.8,71,37.3,29.8,66.6,43.5,62.2,94.4-2.2,25.4-27.1,57.2-55.9,65-.6.2-1.9.3-1.7-.5,50.3-59.6,7.9-90.1,7.9-90.1.9,10-3.3,41-16,43.9,0,0,11.3-44.3-16.1-67-5.2-4.3-7-5.3-7.5-5.5-2.4-.9-1.5,1.3-1.4,2.2,3.7,34-19.1,33.4-38.8,54.4-17,18.2-15.9,43.1,1.7,60.6-69.7-26.7-64.8-98.7-36.8-149.9,3,1.2-8.3,27.2,16,39.8-3-42.6,3.8-79.1,43.3-110.3s12.7-9.2,14.4-8Z"/>
  <g>
    <path class="st1" d="M300,236.1c1.5-15.7,2.6-28.9,3.3-39.4s1.4-24.7,2.1-42.2c.7-17.6,1.1-29.2,1.1-34.9v-8c14.3.1,31.6.2,52,.2s35.4,0,49.8-.2l-.2,3c0,.7-.2,3.4-.5,7.9l-.5,9.9c-.1,2.1-.2,4.3-.2,6.5-11.7-.5-21.6-.7-29.6-.7s-14.7,0-17.8,0c-3.1,0-7.9.2-14.4.4l-1.1,21c7.2.2,15.6.3,25.1.3s12.5-.2,27.2-.6c-.6,7.8-1.2,17.1-1.7,27.8-10.5-.1-18.6-.2-24.3-.2-8.4,0-17.8.2-28.2.6l-1.1,22.2h10.5c3.1,0,9.5,0,19.3-.3l18.9-.5c2.8,0,7.5-.3,14.1-.7-.7,9-1.3,18.3-1.8,27.9-14.9-.1-31.1-.2-48.8-.2h-40.2c0,0-13,.2-13,.2Z"/>
    <path class="st1" d="M421.2,236.1l2.3-18.4,5.6-64,2.8-42.2c11.2.1,20.1.2,26.5.2s13.4,0,24.4-.2c.8,5.2,1.5,9.2,2,11.9.5,2.7,1.9,8,4.1,15.9,2.2,7.9,3.9,14.7,5.2,20.5,1.3,5.8,3.3,15.6,5.9,29.5,2.7-9.6,5.1-17.8,7.3-24.7,2.2-6.9,4.9-14.7,8.2-23.5,3.3-8.8,5.4-14.5,6.3-17.2.9-2.7,2.1-6.9,3.6-12.5,9.1.1,18.1.2,26.8.2s14.2,0,24.8-.2c-1.2,20.5-1.9,38.1-2.3,52.9-.8,28.9-1.2,48.7-1.2,59.5s0,6.3.2,12.2c-8-.1-13.7-.2-16.9-.2-4.7,0-10.4,0-17.3.2.5-5.5,1.1-18.5,1.9-39.1.7-20.6,1.1-33.8,1.1-39.5s0-6-.2-10.4l-12,37.2-17.2,51.9c-7.9-.1-13.4-.2-16.3-.2s-9.6,0-17.3.2l-11.3-50.2-6.6-26.8c-.2-1-.5-2.3-.8-3.8-.3-1.5-.8-4.2-1.5-8l-2.3,25.3-3,51.9-.3,11.7c-8.4-.1-13.8-.2-16.1-.2s-8.6,0-16.4.2Z"/>
    <path class="st1" d="M595.9,236.1c1.3-13.4,2.1-23.9,2.6-31.6.6-10.5,1.2-24.8,1.8-43.1s.9-31.1.9-38.6,0-6.5,0-11.3c8.1.2,14.5.3,19.3.3s14.4-.1,23.2-.4c8.8-.3,16.4-.4,22.7-.4s13,.2,16.3.6c4.3.5,8,1.5,11.2,2.9,3.2,1.4,5.9,3.1,8,5.2,2.4,2.4,4.2,5.4,5.6,8.8,1.5,3.9,2.3,8.1,2.3,12.5s-.4,6.8-1.3,10c-.9,3.2-2.1,6-3.7,8.4-1.6,2.5-3.4,4.5-5.4,6.2-2,1.6-4,2.9-5.9,3.8-1.9.9-4.5,1.8-7.7,2.7,3.2.5,5.8,1.2,7.8,1.9,1.9.7,4,1.8,6.3,3.4,2.2,1.6,4.2,3.5,6,6,1.8,2.4,3.1,5.2,4,8.2.9,3,1.3,6.2,1.3,9.5s-.8,9-2.3,13.1c-1.5,4.1-3.7,7.6-6.4,10.5-2.3,2.5-5.3,4.6-9,6.4-3.7,1.8-7.5,3-11.4,3.7-3.2.5-8.9.9-17.3,1.1-8.4.2-17.2.4-26.6.4h-24c0,0-17.7,0-17.7,0ZM634.5,211.1h17.5c4.6,0,8-.3,10.2-.8,2.7-.7,4.7-1.6,6.1-2.6,1.4-1.1,2.5-2.6,3.3-4.5.8-1.9,1.2-4,1.2-6.3s-.3-3.8-1-5.3c-.7-1.5-1.7-2.8-3-3.8-1.3-1-3-1.8-4.9-2.2-1.9-.5-5-.7-9.1-.7h-19.3l-1.1,26.3ZM636.6,160.1h13c4.3,0,7.3-.1,9.1-.3,1.8-.2,3.6-.6,5.3-1.1,1.7-.5,3.2-1.5,4.4-2.7,1.2-1.3,2.1-2.7,2.7-4.3.5-1.6.8-3.2.8-4.7,0-2.3-.5-4.3-1.6-6-1.1-1.8-2.8-3.1-5.2-3.9-2.4-.9-6-1.3-10.9-1.3h-16.4l-1.1,24.5Z"/>
    <path class="st1" d="M728.1,236.1c1.5-15.7,2.6-28.9,3.3-39.4s1.4-24.7,2.1-42.2c.7-17.6,1.1-29.2,1.1-34.9v-8c14.3.1,31.6.2,52,.2s35.4,0,49.8-.2l-.2,3c0,.7-.2,3.4-.5,7.9l-.5,9.9c-.1,2.1-.2,4.3-.2,6.5-11.7-.5-21.6-.7-29.6-.7s-14.7,0-17.8,0c-3.1,0-7.9.2-14.4.4l-1.1,21c7.2.2,15.6.3,25.1.3s12.5-.2,27.2-.6c-.6,7.8-1.2,17.1-1.7,27.8-10.5-.1-18.6-.2-24.3-.2-8.4,0-17.8.2-28.2.6l-1.1,22.2h10.5c3.1,0,9.5,0,19.3-.3l18.9-.5c2.8,0,7.5-.3,14.1-.7-.7,9-1.3,18.3-1.8,27.9-14.9-.1-31.1-.2-48.8-.2h-40.2c0,0-13,.2-13,.2Z"/>
    <path class="st1" d="M851.3,236.1c1.2-10.7,2.1-20.4,2.7-28.9.7-8.6,1.3-18.5,1.7-29.9.5-11.3.9-23.3,1.1-35.8.2-12.6.4-22.6.4-30,7.6.2,13.8.3,18.4.3s10.8-.1,17.8-.4c7-.3,13.8-.4,20.5-.4s14.7.3,20.8.9c4.6.4,8.7,1.3,12.5,2.6,3.7,1.3,6.9,3,9.4,4.9,2.6,1.9,4.7,4.1,6.4,6.4s3,5.2,4,8.4c.9,3.2,1.4,6.6,1.4,10.3s-.5,7.9-1.6,11.5c-1,3.6-2.7,6.9-4.9,10-2.2,3.1-5,5.8-8.4,8.1-3.4,2.3-8.1,4.6-14.2,7l4.7,11.6c1.3,3.2,2.8,6.5,4.3,9.9l12.2,26.8c.5,1.2,1.5,3.4,2.9,6.8-10-.1-16.8-.2-20.3-.2s-11.6,0-21.5.2c-1-3.2-2.7-9-5.3-17.6-1-3.6-1.9-6.4-2.7-8.3-1.5-4.3-3.6-10.4-6.5-18.2l-9.4-25.8c3.3.6,6.5.9,9.7.9s8.5-.7,12.1-2c3.6-1.3,6.4-3.4,8.2-6.2,1.9-2.8,2.8-5.8,2.8-8.9s-.7-4.9-2.1-6.9c-1.4-2-3.6-3.5-6.6-4.4-3-1-7.7-1.5-13.9-1.5s-4.3,0-6.6.1c-2.3,0-4.9.2-8,.2-.8,12.5-1.5,27.7-2.1,45.7s-1,35.6-1.2,52.9c-10.2-.1-16.8-.2-19.8-.2s-9.9,0-19.1.2Z"/>
  </g>
  <g>
    <path class="st0" d="M1051.5,233.9v-121.7h40.2c12.2,0,21.9,2.6,29.1,7.7,7.2,5.1,10.8,11.9,10.8,20.1s-2.2,12.9-6.5,18-10.3,8.7-18,10.9v.3c9.5,1,17.2,4.1,22.9,9.3,5.7,5.2,8.6,12,8.6,20.4s-4.3,18.8-13,25.3c-8.7,6.5-19.6,9.7-32.8,9.7h-41.2ZM1068,125.1v39.3h17c9.1,0,16.2-1.9,21.4-5.6,5.2-3.8,7.8-9.1,7.8-15.9,0-11.8-9-17.7-27.1-17.7h-19ZM1068,177.2v43.8h22.5c9.7,0,17.3-2,22.6-5.9,5.4-4,8-9.4,8-16.3,0-14.4-11.4-21.6-34.1-21.6h-19Z"/>
    <path class="st0" d="M1246.8,233.9h-16.2v-13.7h-.4c-6.7,10.5-17.1,15.8-31.2,15.8-24.1,0-36.1-12.3-36.1-37v-51.9h16.1v49.7c0,18.3,8.2,27.5,24.5,27.5s14.4-2.5,19.5-7.5c5.1-5,7.6-11.6,7.6-19.6v-50.1h16.2v86.9Z"/>
    <path class="st0" d="M1273.3,230.8v-14.9c8.8,5.6,18.5,8.4,29.1,8.4s21.3-4.1,21.3-12.2-.6-4.3-1.8-5.9c-1.2-1.6-2.9-3-4.9-4.3-2.1-1.2-4.5-2.4-7.3-3.4-2.8-1-5.8-2-9-3.1-4.5-1.5-8.4-3.1-11.8-4.6-3.4-1.6-6.2-3.3-8.5-5.3-2.3-2-4-4.2-5.1-6.7-1.2-2.5-1.7-5.4-1.7-8.7s1.1-7.7,3.3-10.8c2.2-3.1,5.1-5.8,8.7-7.9,3.6-2.1,7.7-3.7,12.4-4.8,4.6-1.1,9.4-1.6,14.4-1.6,8.7,0,16.6,1.3,23.5,3.9v14.1c-7.4-4.2-16-6.3-25.6-6.3s-5.8.3-8.2.9c-2.4.6-4.5,1.4-6.3,2.5-1.7,1.1-3.1,2.4-4,3.9-1,1.5-1.4,3.2-1.4,5s.5,4.2,1.4,5.7c1,1.5,2.4,2.9,4.2,4.1,1.8,1.2,4.1,2.3,6.7,3.2,2.6,1,5.6,2,9,3.1,4.5,1.5,8.5,3,12,4.5,3.6,1.6,6.6,3.3,9.1,5.3,2.5,2,4.4,4.2,5.8,6.7,1.3,2.5,2,5.6,2,9.1s-1.1,8-3.3,11.2c-2.2,3.2-5.1,5.8-8.8,7.9-3.7,2.1-7.9,3.7-12.7,4.7-4.8,1-9.8,1.5-15.1,1.5-10.4,0-19.4-1.7-27-5.2Z"/>
    <path class="st0" d="M1373.4,124.9c-2.9,0-5.4-.8-7.4-2.5-2-1.7-3.1-3.8-3.1-6.5s1-4.8,3.1-6.5c2-1.7,4.5-2.6,7.4-2.6s5.5.9,7.5,2.6c2.1,1.7,3.1,3.9,3.1,6.5s-1,4.6-3.1,6.4c-2.1,1.8-4.6,2.6-7.5,2.6ZM1381.3,233.9h-16.2v-86.9h16.2v86.9Z"/>
    <path class="st0" d="M1497.9,233.9h-16.2v-49.6c0-18.4-7.8-27.7-23.5-27.7s-14.8,2.6-20.1,7.9c-5.3,5.2-7.9,11.8-7.9,19.8v49.6h-16.2v-86.9h16.2v14.4h.4c7.6-11,18.7-16.5,33.1-16.5s19.5,3.1,25.3,9.2c5.9,6.1,8.8,15,8.8,26.6v53.1Z"/>
    <path class="st0" d="M1609.6,194h-71.3c.3,9.7,3.3,17.1,9.1,22.4,5.8,5.3,13.7,7.9,23.9,7.9s21.8-3.2,31.4-9.7v13.1c-8.9,5.5-20.6,8.3-35.2,8.3s-25.5-3.9-33.6-11.8c-8.2-7.9-12.2-19-12.2-33.3s4.5-24.5,13.4-33.1c8.9-8.5,20-12.8,33.2-12.8s23.4,3.7,30.7,11c7.2,7.4,10.8,17.6,10.8,30.6v7.3ZM1593,182.2c0-8-2.3-14.3-6.8-18.8-4.4-4.5-10.6-6.7-18.5-6.7s-14.1,2.3-19.4,7-8.6,10.8-9.9,18.4h54.5Z"/>
    <path class="st0" d="M1627.9,230.8v-14.9c8.8,5.6,18.5,8.4,29.1,8.4s21.3-4.1,21.3-12.2-.6-4.3-1.8-5.9c-1.2-1.6-2.9-3-4.9-4.3-2.1-1.2-4.5-2.4-7.3-3.4-2.8-1-5.8-2-9-3.1-4.5-1.5-8.4-3.1-11.8-4.6-3.4-1.6-6.2-3.3-8.5-5.3-2.3-2-4-4.2-5.1-6.7-1.2-2.5-1.7-5.4-1.7-8.7s1.1-7.7,3.3-10.8c2.2-3.1,5.1-5.8,8.7-7.9,3.6-2.1,7.7-3.7,12.4-4.8,4.6-1.1,9.4-1.6,14.4-1.6,8.7,0,16.6,1.3,23.5,3.9v14.1c-7.4-4.2-16-6.3-25.6-6.3s-5.8.3-8.2.9c-2.4.6-4.5,1.4-6.3,2.5-1.7,1.1-3.1,2.4-4,3.9-1,1.5-1.4,3.2-1.4,5s.5,4.2,1.4,5.7c1,1.5,2.4,2.9,4.2,4.1,1.8,1.2,4.1,2.3,6.7,3.2,2.6,1,5.6,2,9,3.1,4.5,1.5,8.5,3,12,4.5,3.6,1.6,6.6,3.3,9.1,5.3,2.5,2,4.4,4.2,5.8,6.7,1.3,2.5,2,5.6,2,9.1s-1.1,8-3.3,11.2c-2.2,3.2-5.1,5.8-8.8,7.9-3.7,2.1-7.9,3.7-12.7,4.7-4.8,1-9.8,1.5-15.1,1.5-10.4,0-19.4-1.7-27-5.2Z"/>
    <path class="st0" d="M1713.6,230.8v-14.9c8.8,5.6,18.5,8.4,29.1,8.4s21.3-4.1,21.3-12.2-.6-4.3-1.8-5.9c-1.2-1.6-2.9-3-4.9-4.3-2.1-1.2-4.5-2.4-7.3-3.4-2.8-1-5.8-2-9-3.1-4.5-1.5-8.4-3.1-11.8-4.6-3.4-1.6-6.2-3.3-8.5-5.3-2.3-2-4-4.2-5.1-6.7-1.2-2.5-1.7-5.4-1.7-8.7s1.1-7.7,3.3-10.8c2.2-3.1,5.1-5.8,8.7-7.9,3.6-2.1,7.7-3.7,12.4-4.8,4.6-1.1,9.4-1.6,14.4-1.6,8.7,0,16.6,1.3,23.5,3.9v14.1c-7.4-4.2-16-6.3-25.6-6.3s-5.8.3-8.2.9c-2.4.6-4.5,1.4-6.3,2.5-1.7,1.1-3.1,2.4-4,3.9-1,1.5-1.4,3.2-1.4,5s.5,4.2,1.4,5.7c1,1.5,2.4,2.9,4.2,4.1,1.8,1.2,4.1,2.3,6.7,3.2,2.6,1,5.6,2,9,3.1,4.5,1.5,8.5,3,12,4.5,3.6,1.6,6.6,3.3,9.1,5.3,2.5,2,4.4,4.2,5.8,6.7,1.3,2.5,2,5.6,2,9.1s-1.1,8-3.3,11.2c-2.2,3.2-5.1,5.8-8.8,7.9-3.7,2.1-7.9,3.7-12.7,4.7-4.8,1-9.8,1.5-15.1,1.5-10.4,0-19.4-1.7-27-5.2Z"/>
    <path class="st0" d="M1854.7,230.8v-14.9c8.8,5.6,18.5,8.4,29.1,8.4s21.3-4.1,21.3-12.2-.6-4.3-1.8-5.9c-1.2-1.6-2.9-3-4.9-4.3-2.1-1.2-4.5-2.4-7.3-3.4-2.8-1-5.8-2-9-3.1-4.5-1.5-8.4-3.1-11.8-4.6-3.4-1.6-6.2-3.3-8.5-5.3-2.3-2-4-4.2-5.1-6.7-1.2-2.5-1.7-5.4-1.7-8.7s1.1-7.7,3.3-10.8c2.2-3.1,5.1-5.8,8.7-7.9,3.6-2.1,7.7-3.7,12.4-4.8,4.6-1.1,9.4-1.6,14.4-1.6,8.7,0,16.6,1.3,23.5,3.9v14.1c-7.4-4.2-16-6.3-25.6-6.3s-5.8.3-8.2.9c-2.4.6-4.5,1.4-6.3,2.5-1.7,1.1-3.1,2.4-4,3.9-1,1.5-1.4,3.2-1.4,5s.5,4.2,1.4,5.7c1,1.5,2.4,2.9,4.2,4.1,1.8,1.2,4.1,2.3,6.7,3.2,2.6,1,5.6,2,9,3.1,4.5,1.5,8.5,3,12,4.5,3.6,1.6,6.6,3.3,9.1,5.3,2.5,2,4.4,4.2,5.8,6.7,1.3,2.5,2,5.6,2,9.1s-1.1,8-3.3,11.2c-2.2,3.2-5.1,5.8-8.8,7.9-3.7,2.1-7.9,3.7-12.7,4.7-4.8,1-9.8,1.5-15.1,1.5-10.4,0-19.4-1.7-27-5.2Z"/>
    <path class="st0" d="M2027.7,194h-71.3c.3,9.7,3.3,17.1,9.1,22.4,5.8,5.3,13.7,7.9,23.9,7.9s21.8-3.2,31.4-9.7v13.1c-8.9,5.5-20.6,8.3-35.2,8.3s-25.5-3.9-33.6-11.8c-8.2-7.9-12.2-19-12.2-33.3s4.5-24.5,13.4-33.1c8.9-8.5,20-12.8,33.2-12.8s23.4,3.7,30.7,11c7.2,7.4,10.8,17.6,10.8,30.6v7.3ZM2011.1,182.2c0-8-2.3-14.3-6.8-18.8-4.4-4.5-10.6-6.7-18.5-6.7s-14.1,2.3-19.4,7-8.6,10.8-9.9,18.4h54.5Z"/>
    <path class="st0" d="M2104.8,161.1c-2.8-1.9-6.9-2.8-12.2-2.8s-12.7,2.8-17.3,8.4-7,13.2-7,22.9v44.3h-16.2v-86.9h16.2v17.9h.4c2.3-6.1,5.8-10.9,10.6-14.3,4.7-3.4,10-5.1,15.9-5.1s7.4.4,9.7,1.2v14.4Z"/>
    <path class="st0" d="M2209.9,147l-40.2,86.9h-15.9l-38.3-86.9h17.8l25.6,63.1c1.9,4.6,3.1,8.7,3.6,12.1h.4c.7-4.4,1.7-8.3,3.2-11.8l26.8-63.5h17.1Z"/>
    <path class="st0" d="M2235.5,124.9c-2.9,0-5.4-.8-7.4-2.5-2-1.7-3.1-3.8-3.1-6.5s1-4.8,3.1-6.5c2-1.7,4.5-2.6,7.4-2.6s5.5.9,7.5,2.6c2.1,1.7,3.1,3.9,3.1,6.5s-1,4.6-3.1,6.4c-2.1,1.8-4.6,2.6-7.5,2.6ZM2243.4,233.9h-16.2v-86.9h16.2v86.9Z"/>
    <path class="st0" d="M2345,229.9c-7.8,4-17,6-27.6,6s-26-4-34.9-12.1c-8.8-8.1-13.3-18.5-13.3-31.4s4.8-25.8,14.3-34.5c9.5-8.7,22.3-13,38.2-13s16.7,1.4,23.5,4.2v14.3c-7.5-4.5-15.5-6.8-24.1-6.8s-18.8,3.2-25.4,9.5c-6.6,6.4-9.9,14.7-9.9,25.1s3.1,18.2,9.3,24.1c6.2,5.9,14.5,8.8,25,8.8s17.1-2.5,24.9-7.6v13.2Z"/>
    <path class="st0" d="M2450.7,194h-71.3c.3,9.7,3.3,17.1,9.1,22.4,5.8,5.3,13.7,7.9,23.9,7.9s21.8-3.2,31.4-9.7v13.1c-8.9,5.5-20.6,8.3-35.2,8.3s-25.5-3.9-33.6-11.8c-8.2-7.9-12.2-19-12.2-33.3s4.5-24.5,13.4-33.1c8.9-8.5,20-12.8,33.2-12.8s23.4,3.7,30.7,11c7.2,7.4,10.8,17.6,10.8,30.6v7.3ZM2434.1,182.2c0-8-2.3-14.3-6.8-18.8-4.4-4.5-10.6-6.7-18.5-6.7s-14.1,2.3-19.4,7c-5.3,4.7-8.6,10.8-9.9,18.4h54.5Z"/>
    <path class="st0" d="M2469,230.8v-14.9c8.8,5.6,18.5,8.4,29.1,8.4s21.3-4.1,21.3-12.2-.6-4.3-1.8-5.9c-1.2-1.6-2.9-3-4.9-4.3-2.1-1.2-4.5-2.4-7.3-3.4-2.8-1-5.8-2-9-3.1-4.5-1.5-8.4-3.1-11.8-4.6-3.4-1.6-6.2-3.3-8.5-5.3-2.3-2-4-4.2-5.1-6.7-1.2-2.5-1.7-5.4-1.7-8.7s1.1-7.7,3.3-10.8c2.2-3.1,5.1-5.8,8.7-7.9,3.6-2.1,7.7-3.7,12.4-4.8,4.6-1.1,9.4-1.6,14.4-1.6,8.7,0,16.6,1.3,23.5,3.9v14.1c-7.4-4.2-16-6.3-25.6-6.3s-5.8.3-8.2.9c-2.4.6-4.5,1.4-6.3,2.5-1.7,1.1-3.1,2.4-4,3.9-1,1.5-1.4,3.2-1.4,5s.5,4.2,1.4,5.7c1,1.5,2.4,2.9,4.2,4.1,1.8,1.2,4.1,2.3,6.7,3.2,2.6,1,5.6,2,9,3.1,4.5,1.5,8.5,3,12,4.5,3.6,1.6,6.6,3.3,9.1,5.3,2.5,2,4.4,4.2,5.8,6.7,1.3,2.5,2,5.6,2,9.1s-1.1,8-3.3,11.2c-2.2,3.2-5.1,5.8-8.8,7.9-3.7,2.1-7.9,3.7-12.7,4.7-4.8,1-9.8,1.5-15.1,1.5-10.4,0-19.4-1.7-27-5.2Z"/>
  </g>
</svg>