<?xml version="1.0" encoding="UTF-8"?>
<svg id="Layer_1" xmlns="http://www.w3.org/2000/svg" version="1.1" xmlns:xlink="http://www.w3.org/1999/xlink" viewBox="0 0 2596.1 326.5">
  <!-- Generator: Adobe Illustrator 30.0.0, SVG Export Plug-In . SVG Version: 2.1.1 Build 123)  -->
  <defs>
    <style>
      .st0 {
        fill: #c1a106;
      }

      .st1 {
        fill: #fff;
        font-family: ErasITC-Bold, 'Eras Bold ITC';
        font-size: 187px;
        font-weight: 700;
      }

      .st2 {
        fill: url(#linear-gradient);
      }

      .st3 {
        fill: #0f172a;
      }
    </style>
    <linearGradient id="linear-gradient" x1="86.5" y1="44.2" x2="171.9" y2="275.9" gradientUnits="userSpaceOnUse">
      <stop offset="0" stop-color="#e1bb5c"/>
      <stop offset=".1" stop-color="#9c5e26"/>
      <stop offset=".3" stop-color="#f9e37f"/>
      <stop offset=".3" stop-color="#ebcc6b"/>
      <stop offset=".5" stop-color="#ca9339"/>
      <stop offset=".5" stop-color="#c1832b"/>
      <stop offset=".7" stop-color="#f8d871"/>
      <stop offset=".8" stop-color="#fcde77"/>
      <stop offset=".9" stop-color="#fadc75"/>
      <stop offset=".9" stop-color="#f5d571"/>
      <stop offset="1" stop-color="#ecc969"/>
      <stop offset="1" stop-color="#e0b85e"/>
      <stop offset="1" stop-color="#cfa24f"/>
      <stop offset="1" stop-color="#bb883d"/>
      <stop offset="1" stop-color="#ac7330"/>
    </linearGradient>
  </defs>
  <rect class="st3" x="0" y="0" width="2596.1" height="326.2"/>
  <path class="st2" d="M141.2,37.1c-9.8,30.5,3.6,51,28.8,71,37.3,29.8,66.6,43.5,62.2,94.4-2.2,25.4-27.1,57.2-55.9,65-.6.2-1.9.3-1.7-.5,50.3-59.6,7.9-90.1,7.9-90.1.9,10-3.3,41-16,43.9,0,0,11.3-44.3-16.1-67-5.2-4.3-7-5.3-7.5-5.5-2.4-.9-1.5,1.3-1.4,2.2,3.7,34-19.1,33.4-38.8,54.4-17,18.2-15.9,43.1,1.7,60.6-69.7-26.7-64.8-98.7-36.8-149.9,3,1.2-8.3,27.2,16,39.8-3-42.6,3.8-79.1,43.3-110.3s12.7-9.2,14.4-8Z"/>
  <text class="st1" transform="translate(290.9 236.1)"><tspan x="0" y="0">EMBER</tspan></text>
  <g>
    <path class="st0" d="M1051.5,233.9v-121.7h40.2c12.2,0,21.9,2.6,29.1,7.7,7.2,5.1,10.8,11.9,10.8,20.1s-2.2,12.9-6.5,18-10.3,8.7-18,10.9v.3c9.5,1,17.2,4.1,22.9,9.3,5.7,5.2,8.6,12,8.6,20.4s-4.3,18.8-13,25.3c-8.7,6.5-19.6,9.7-32.8,9.7h-41.2ZM1068,125.1v39.3h17c9.1,0,16.2-1.9,21.4-5.6,5.2-3.8,7.8-9.1,7.8-15.9,0-11.8-9-17.7-27.1-17.7h-19ZM1068,177.2v43.8h22.5c9.7,0,17.3-2,22.6-5.9,5.4-4,8-9.4,8-16.3,0-14.4-11.4-21.6-34.1-21.6h-19Z"/>
    <path class="st0" d="M1246.8,233.9h-16.2v-13.7h-.4c-6.7,10.5-17.1,15.8-31.2,15.8-24.1,0-36.1-12.3-36.1-37v-51.9h16.1v49.7c0,18.3,8.2,27.5,24.5,27.5s14.4-2.5,19.5-7.5c5.1-5,7.6-11.6,7.6-19.6v-50.1h16.2v86.9Z"/>
    <path class="st0" d="M1273.3,230.8v-14.9c8.8,5.6,18.5,8.4,29.1,8.4s21.3-4.1,21.3-12.2-.6-4.3-1.8-5.9c-1.2-1.6-2.9-3-4.9-4.3-2.1-1.2-4.5-2.4-7.3-3.4-2.8-1-5.8-2-9-3.1-4.5-1.5-8.4-3.1-11.8-4.6-3.4-1.6-6.2-3.3-8.5-5.3-2.3-2-4-4.2-5.1-6.7-1.2-2.5-1.7-5.4-1.7-8.7s1.1-7.7,3.3-10.8c2.2-3.1,5.1-5.8,8.7-7.9,3.6-2.1,7.7-3.7,12.4-4.8,4.6-1.1,9.4-1.6,14.4-1.6,8.7,0,16.6,1.3,23.5,3.9v14.1c-7.4-4.2-16-6.3-25.6-6.3s-5.8.3-8.2.9c-2.4.6-4.5,1.4-6.3,2.5-1.7,1.1-3.1,2.4-4,3.9-1,1.5-1.4,3.2-1.4,5s.5,4.2,1.4,5.7c1,1.5,2.4,2.9,4.2,4.1,1.8,1.2,4.1,2.3,6.7,3.2,2.6,1,5.6,2,9,3.1,4.5,1.5,8.5,3,12,4.5,3.6,1.6,6.6,3.3,9.1,5.3,2.5,2,4.4,4.2,5.8,6.7,1.3,2.5,2,5.6,2,9.1s-1.1,8-3.3,11.2c-2.2,3.2-5.1,5.8-8.8,7.9-3.7,2.1-7.9,3.7-12.7,4.7-4.8,1-9.8,1.5-15.1,1.5-10.4,0-19.4-1.7-27-5.2Z"/>
    <path class="st0" d="M1373.4,124.9c-2.9,0-5.4-.8-7.4-2.5-2-1.7-3.1-3.8-3.1-6.5s1-4.8,3.1-6.5c2-1.7,4.5-2.6,7.4-2.6s5.5.9,7.5,2.6c2.1,1.7,3.1,3.9,3.1,6.5s-1,4.6-3.1,6.4c-2.1,1.8-4.6,2.6-7.5,2.6ZM1381.3,233.9h-16.2v-86.9h16.2v86.9Z"/>
    <path class="st0" d="M1497.9,233.9h-16.2v-49.6c0-18.4-7.8-27.7-23.5-27.7s-14.8,2.6-20.1,7.9c-5.3,5.2-7.9,11.8-7.9,19.8v49.6h-16.2v-86.9h16.2v14.4h.4c7.6-11,18.7-16.5,33.1-16.5s19.5,3.1,25.3,9.2c5.9,6.1,8.8,15,8.8,26.6v53.1Z"/>
    <path class="st0" d="M1609.6,194h-71.3c.3,9.7,3.3,17.1,9.1,22.4,5.8,5.3,13.7,7.9,23.9,7.9s21.8-3.2,31.4-9.7v13.1c-8.9,5.5-20.6,8.3-35.2,8.3s-25.5-3.9-33.6-11.8c-8.2-7.9-12.2-19-12.2-33.3s4.5-24.5,13.4-33.1c8.9-8.5,20-12.8,33.2-12.8s23.4,3.7,30.7,11c7.2,7.4,10.8,17.6,10.8,30.6v7.3ZM1593,182.2c0-8-2.3-14.3-6.8-18.8-4.4-4.5-10.6-6.7-18.5-6.7s-14.1,2.3-19.4,7-8.6,10.8-9.9,18.4h54.5Z"/>
    <path class="st0" d="M1627.9,230.8v-14.9c8.8,5.6,18.5,8.4,29.1,8.4s21.3-4.1,21.3-12.2-.6-4.3-1.8-5.9c-1.2-1.6-2.9-3-4.9-4.3-2.1-1.2-4.5-2.4-7.3-3.4-2.8-1-5.8-2-9-3.1-4.5-1.5-8.4-3.1-11.8-4.6-3.4-1.6-6.2-3.3-8.5-5.3-2.3-2-4-4.2-5.1-6.7-1.2-2.5-1.7-5.4-1.7-8.7s1.1-7.7,3.3-10.8c2.2-3.1,5.1-5.8,8.7-7.9,3.6-2.1,7.7-3.7,12.4-4.8,4.6-1.1,9.4-1.6,14.4-1.6,8.7,0,16.6,1.3,23.5,3.9v14.1c-7.4-4.2-16-6.3-25.6-6.3s-5.8.3-8.2.9c-2.4.6-4.5,1.4-6.3,2.5-1.7,1.1-3.1,2.4-4,3.9-1,1.5-1.4,3.2-1.4,5s.5,4.2,1.4,5.7c1,1.5,2.4,2.9,4.2,4.1,1.8,1.2,4.1,2.3,6.7,3.2,2.6,1,5.6,2,9,3.1,4.5,1.5,8.5,3,12,4.5,3.6,1.6,6.6,3.3,9.1,5.3,2.5,2,4.4,4.2,5.8,6.7,1.3,2.5,2,5.6,2,9.1s-1.1,8-3.3,11.2c-2.2,3.2-5.1,5.8-8.8,7.9-3.7,2.1-7.9,3.7-12.7,4.7-4.8,1-9.8,1.5-15.1,1.5-10.4,0-19.4-1.7-27-5.2Z"/>
    <path class="st0" d="M1713.6,230.8v-14.9c8.8,5.6,18.5,8.4,29.1,8.4s21.3-4.1,21.3-12.2-.6-4.3-1.8-5.9c-1.2-1.6-2.9-3-4.9-4.3-2.1-1.2-4.5-2.4-7.3-3.4-2.8-1-5.8-2-9-3.1-4.5-1.5-8.4-3.1-11.8-4.6-3.4-1.6-6.2-3.3-8.5-5.3-2.3-2-4-4.2-5.1-6.7-1.2-2.5-1.7-5.4-1.7-8.7s1.1-7.7,3.3-10.8c2.2-3.1,5.1-5.8,8.7-7.9,3.6-2.1,7.7-3.7,12.4-4.8,4.6-1.1,9.4-1.6,14.4-1.6,8.7,0,16.6,1.3,23.5,3.9v14.1c-7.4-4.2-16-6.3-25.6-6.3s-5.8.3-8.2.9c-2.4.6-4.5,1.4-6.3,2.5-1.7,1.1-3.1,2.4-4,3.9-1,1.5-1.4,3.2-1.4,5s.5,4.2,1.4,5.7c1,1.5,2.4,2.9,4.2,4.1,1.8,1.2,4.1,2.3,6.7,3.2,2.6,1,5.6,2,9,3.1,4.5,1.5,8.5,3,12,4.5,3.6,1.6,6.6,3.3,9.1,5.3,2.5,2,4.4,4.2,5.8,6.7,1.3,2.5,2,5.6,2,9.1s-1.1,8-3.3,11.2c-2.2,3.2-5.1,5.8-8.8,7.9-3.7,2.1-7.9,3.7-12.7,4.7-4.8,1-9.8,1.5-15.1,1.5-10.4,0-19.4-1.7-27-5.2Z"/>
    <path class="st0" d="M1854.7,230.8v-14.9c8.8,5.6,18.5,8.4,29.1,8.4s21.3-4.1,21.3-12.2-.6-4.3-1.8-5.9c-1.2-1.6-2.9-3-4.9-4.3-2.1-1.2-4.5-2.4-7.3-3.4-2.8-1-5.8-2-9-3.1-4.5-1.5-8.4-3.1-11.8-4.6-3.4-1.6-6.2-3.3-8.5-5.3-2.3-2-4-4.2-5.1-6.7-1.2-2.5-1.7-5.4-1.7-8.7s1.1-7.7,3.3-10.8c2.2-3.1,5.1-5.8,8.7-7.9,3.6-2.1,7.7-3.7,12.4-4.8,4.6-1.1,9.4-1.6,14.4-1.6,8.7,0,16.6,1.3,23.5,3.9v14.1c-7.4-4.2-16-6.3-25.6-6.3s-5.8.3-8.2.9c-2.4.6-4.5,1.4-6.3,2.5-1.7,1.1-3.1,2.4-4,3.9-1,1.5-1.4,3.2-1.4,5s.5,4.2,1.4,5.7c1,1.5,2.4,2.9,4.2,4.1,1.8,1.2,4.1,2.3,6.7,3.2,2.6,1,5.6,2,9,3.1,4.5,1.5,8.5,3,12,4.5,3.6,1.6,6.6,3.3,9.1,5.3,2.5,2,4.4,4.2,5.8,6.7,1.3,2.5,2,5.6,2,9.1s-1.1,8-3.3,11.2c-2.2,3.2-5.1,5.8-8.8,7.9-3.7,2.1-7.9,3.7-12.7,4.7-4.8,1-9.8,1.5-15.1,1.5-10.4,0-19.4-1.7-27-5.2Z"/>
    <path class="st0" d="M2027.7,194h-71.3c.3,9.7,3.3,17.1,9.1,22.4,5.8,5.3,13.7,7.9,23.9,7.9s21.8-3.2,31.4-9.7v13.1c-8.9,5.5-20.6,8.3-35.2,8.3s-25.5-3.9-33.6-11.8c-8.2-7.9-12.2-19-12.2-33.3s4.5-24.5,13.4-33.1c8.9-8.5,20-12.8,33.2-12.8s23.4,3.7,30.7,11c7.2,7.4,10.8,17.6,10.8,30.6v7.3ZM2011.1,182.2c0-8-2.3-14.3-6.8-18.8-4.4-4.5-10.6-6.7-18.5-6.7s-14.1,2.3-19.4,7-8.6,10.8-9.9,18.4h54.5Z"/>
    <path class="st0" d="M2104.8,161.1c-2.8-1.9-6.9-2.8-12.2-2.8s-12.7,2.8-17.3,8.4-7,13.2-7,22.9v44.3h-16.2v-86.9h16.2v17.9h.4c2.3-6.1,5.8-10.9,10.6-14.3,4.7-3.4,10-5.1,15.9-5.1s7.4.4,9.7,1.2v14.4Z"/>
    <path class="st0" d="M2209.9,147l-40.2,86.9h-15.9l-38.3-86.9h17.8l25.6,63.1c1.9,4.6,3.1,8.7,3.6,12.1h.4c.7-4.4,1.7-8.3,3.2-11.8l26.8-63.5h17.1Z"/>
    <path class="st0" d="M2235.5,124.9c-2.9,0-5.4-.8-7.4-2.5-2-1.7-3.1-3.8-3.1-6.5s1-4.8,3.1-6.5c2-1.7,4.5-2.6,7.4-2.6s5.5.9,7.5,2.6c2.1,1.7,3.1,3.9,3.1,6.5s-1,4.6-3.1,6.4c-2.1,1.8-4.6,2.6-7.5,2.6ZM2243.4,233.9h-16.2v-86.9h16.2v86.9Z"/>
    <path class="st0" d="M2345,229.9c-7.8,4-17,6-27.6,6s-26-4-34.9-12.1c-8.8-8.1-13.3-18.5-13.3-31.4s4.8-25.8,14.3-34.5c9.5-8.7,22.3-13,38.2-13s16.7,1.4,23.5,4.2v14.3c-7.5-4.5-15.5-6.8-24.1-6.8s-18.8,3.2-25.4,9.5c-6.6,6.4-9.9,14.7-9.9,25.1s3.1,18.2,9.3,24.1c6.2,5.9,14.5,8.8,25,8.8s17.1-2.5,24.9-7.6v13.2Z"/>
    <path class="st0" d="M2450.7,194h-71.3c.3,9.7,3.3,17.1,9.1,22.4,5.8,5.3,13.7,7.9,23.9,7.9s21.8-3.2,31.4-9.7v13.1c-8.9,5.5-20.6,8.3-35.2,8.3s-25.5-3.9-33.6-11.8c-8.2-7.9-12.2-19-12.2-33.3s4.5-24.5,13.4-33.1c8.9-8.5,20-12.8,33.2-12.8s23.4,3.7,30.7,11c7.2,7.4,10.8,17.6,10.8,30.6v7.3ZM2434.1,182.2c0-8-2.3-14.3-6.8-18.8-4.4-4.5-10.6-6.7-18.5-6.7s-14.1,2.3-19.4,7c-5.3,4.7-8.6,10.8-9.9,18.4h54.5Z"/>
    <path class="st0" d="M2469,230.8v-14.9c8.8,5.6,18.5,8.4,29.1,8.4s21.3-4.1,21.3-12.2-.6-4.3-1.8-5.9c-1.2-1.6-2.9-3-4.9-4.3-2.1-1.2-4.5-2.4-7.3-3.4-2.8-1-5.8-2-9-3.1-4.5-1.5-8.4-3.1-11.8-4.6-3.4-1.6-6.2-3.3-8.5-5.3-2.3-2-4-4.2-5.1-6.7-1.2-2.5-1.7-5.4-1.7-8.7s1.1-7.7,3.3-10.8c2.2-3.1,5.1-5.8,8.7-7.9,3.6-2.1,7.7-3.7,12.4-4.8,4.6-1.1,9.4-1.6,14.4-1.6,8.7,0,16.6,1.3,23.5,3.9v14.1c-7.4-4.2-16-6.3-25.6-6.3s-5.8.3-8.2.9c-2.4.6-4.5,1.4-6.3,2.5-1.7,1.1-3.1,2.4-4,3.9-1,1.5-1.4,3.2-1.4,5s.5,4.2,1.4,5.7c1,1.5,2.4,2.9,4.2,4.1,1.8,1.2,4.1,2.3,6.7,3.2,2.6,1,5.6,2,9,3.1,4.5,1.5,8.5,3,12,4.5,3.6,1.6,6.6,3.3,9.1,5.3,2.5,2,4.4,4.2,5.8,6.7,1.3,2.5,2,5.6,2,9.1s-1.1,8-3.3,11.2c-2.2,3.2-5.1,5.8-8.8,7.9-3.7,2.1-7.9,3.7-12.7,4.7-4.8,1-9.8,1.5-15.1,1.5-10.4,0-19.4-1.7-27-5.2Z"/>
  </g>
</svg>