<?xml version="1.0" encoding="UTF-8"?>
<svg id="Layer_1" data-name="Layer 1" xmlns="http://www.w3.org/2000/svg" xmlns:xlink="http://www.w3.org/1999/xlink" viewBox="0 0 2596.13 326.53">
  <defs>
    <style>
      .cls-1 {
        fill: #fff;
      }

      .cls-2 {
        fill: #c4882f;
      }

      .cls-3 {
        fill: url(#linear-gradient);
      }

      .cls-4 {
        fill: #0f172a;
      }
    </style>
    <linearGradient id="linear-gradient" x1="86.49" y1="43.21" x2="171.92" y2="274.85" gradientUnits="userSpaceOnUse">
      <stop offset="0" stop-color="#e1bb5c"/>
      <stop offset=".11" stop-color="#9c5e26"/>
      <stop offset=".29" stop-color="#f9e37f"/>
      <stop offset=".34" stop-color="#ebcc6b"/>
      <stop offset=".46" stop-color="#ca9339"/>
      <stop offset=".49" stop-color="#c1832b"/>
      <stop offset=".73" stop-color="#f8d871"/>
      <stop offset=".84" stop-color="#fcde77"/>
      <stop offset=".91" stop-color="#fadc75"/>
      <stop offset=".94" stop-color="#f5d571"/>
      <stop offset=".96" stop-color="#ecc969"/>
      <stop offset=".97" stop-color="#e0b85e"/>
      <stop offset=".98" stop-color="#cfa24f"/>
      <stop offset=".99" stop-color="#bb883d"/>
      <stop offset="1" stop-color="#ac7330"/>
    </linearGradient>
  </defs>
  <rect class="cls-4" x="0" y="0" width="2596.13" height="326.15"/>
  <path class="cls-3" d="M141.18,36.08c-9.77,30.52,3.63,50.97,28.76,71.02,37.3,29.76,66.57,43.52,62.21,94.37-2.18,25.42-27.09,57.21-55.88,65-.59.16-1.88.27-1.7-.48,50.33-59.59,7.94-90.13,7.94-90.13.95,10.04-3.26,41.01-16,43.94,0,0,11.34-44.26-16.12-67.03-5.23-4.34-7.04-5.29-7.49-5.46-2.45-.9-1.53,1.3-1.43,2.22,3.71,33.98-19.13,33.35-38.85,54.37-17.05,18.18-15.94,43.15,1.74,60.58-69.66-26.74-64.75-98.72-36.81-149.95,2.96,1.24-8.27,27.23,15.96,39.84-2.97-42.59,3.75-79.06,43.32-110.33,1.83-1.44,12.74-9.22,14.35-7.97Z"/>
  <g>
    <path class="cls-1" d="M299.98,236.15c1.53-15.71,2.64-28.85,3.34-39.45s1.4-24.67,2.11-42.23c.7-17.56,1.05-29.2,1.05-34.93l-.09-8.04c14.36.12,31.74.18,52.13.18,18.81,0,35.39-.06,49.75-.18l-.18,3c-.06.73-.21,3.37-.46,7.92l-.55,9.92c-.12,2.12-.18,4.28-.18,6.46-11.75-.49-21.61-.73-29.58-.73-8.77,0-14.69.02-17.76.05-3.07.03-7.87.17-14.38.41l-1.11,21c7.18.18,15.56.27,25.12.27,3.41,0,12.48-.21,27.22-.64-.61,7.79-1.19,17.07-1.73,27.85-10.53-.12-18.62-.18-24.27-.18-8.4,0-17.79.21-28.2.64l-1.09,22.19h10.49c3.1,0,9.52-.09,19.25-.27l18.89-.46c2.8-.06,7.48-.3,14.05-.73-.73,9.01-1.34,18.32-1.83,27.94-14.85-.12-31.14-.18-48.85-.18l-40.18.09-12.97.09Z"/>
    <path class="cls-1" d="M421.24,236.15l2.26-18.44,5.61-64.01,2.81-42.19c11.24.12,20.07.18,26.48.18,5.31,0,13.44-.06,24.38-.18.79,5.24,1.46,9.21,2,11.92.55,2.71,1.9,8.01,4.05,15.89,2.15,7.88,3.88,14.7,5.19,20.45,1.3,5.75,3.26,15.6,5.87,29.54,2.68-9.56,5.12-17.77,7.32-24.65,2.19-6.88,4.94-14.7,8.23-23.47,3.29-8.77,5.38-14.5,6.27-17.21.88-2.71,2.09-6.86,3.61-12.46,9.13.12,18.08.18,26.84.18,5.97,0,14.24-.06,24.84-.18-1.16,20.51-1.92,38.14-2.28,52.87-.79,28.85-1.19,48.7-1.19,59.53,0,2.25.06,6.33.18,12.24-8.04-.12-13.67-.18-16.89-.18-4.69,0-10.44.06-17.26.18.49-5.48,1.11-18.52,1.85-39.13.74-20.6,1.11-33.77,1.11-39.49,0-2.5-.06-5.96-.18-10.41l-11.98,37.16-17.19,51.86c-7.91-.12-13.36-.18-16.34-.18-3.78,0-9.56.06-17.35.18l-11.26-50.22-6.59-26.75c-.25-1.04-.52-2.31-.82-3.84-.31-1.52-.79-4.2-1.46-8.04l-2.3,25.29-3.04,51.86-.28,11.69c-8.4-.12-13.76-.18-16.07-.18-3.17,0-8.64.06-16.44.18Z"/>
    <path class="cls-1" d="M595.91,236.15c1.28-13.39,2.13-23.92,2.55-31.59.61-10.47,1.2-24.84,1.78-43.1s.87-31.14.87-38.62c0-2.68-.03-6.45-.09-11.32,8.1.18,14.52.27,19.27.27,6.63,0,14.37-.14,23.19-.41,8.83-.27,16.41-.41,22.74-.41,7.61,0,13.03.21,16.25.64,4.26.55,7.99,1.52,11.18,2.92,3.2,1.4,5.86,3.14,7.99,5.21,2.37,2.43,4.23,5.36,5.57,8.77,1.52,3.9,2.28,8.07,2.28,12.51,0,3.47-.44,6.79-1.32,9.95-.88,3.17-2.13,5.98-3.74,8.45-1.61,2.47-3.42,4.52-5.43,6.16-2.01,1.64-3.97,2.92-5.89,3.84-1.92.91-4.49,1.83-7.72,2.74,3.23.55,5.81,1.17,7.76,1.87,1.95.7,4.03,1.83,6.25,3.38,2.22,1.55,4.21,3.55,5.98,5.98,1.77,2.44,3.09,5.16,3.97,8.17.88,3.01,1.32,6.2,1.32,9.54,0,4.63-.76,8.98-2.28,13.06-1.52,4.08-3.65,7.58-6.39,10.5-2.31,2.5-5.33,4.63-9.04,6.39-3.71,1.77-7.52,2.98-11.41,3.65-3.17.49-8.93.85-17.3,1.1-8.37.24-17.24.37-26.62.37l-24.01-.09-17.71.09ZM634.5,211.13h17.55c4.63,0,8.04-.27,10.24-.82,2.68-.67,4.72-1.55,6.12-2.65,1.4-1.1,2.51-2.59,3.34-4.47.82-1.89,1.23-3.99,1.23-6.3,0-2.01-.33-3.77-1-5.3-.67-1.52-1.68-2.8-3.01-3.83-1.34-1.03-2.98-1.78-4.93-2.24-1.95-.46-4.99-.68-9.13-.68h-19.27l-1.13,26.3ZM636.59,160.09h12.98c4.27,0,7.3-.11,9.1-.32,1.8-.21,3.55-.59,5.26-1.14,1.71-.55,3.18-1.46,4.43-2.74,1.25-1.28,2.13-2.71,2.65-4.29.52-1.58.78-3.16.78-4.75,0-2.25-.53-4.26-1.6-6.03-1.07-1.76-2.79-3.07-5.16-3.93-2.38-.85-6-1.28-10.87-1.28h-16.44l-1.14,24.47Z"/>
    <path class="cls-1" d="M728.12,236.15c1.53-15.71,2.64-28.85,3.34-39.45s1.4-24.67,2.11-42.23c.7-17.56,1.05-29.2,1.05-34.93l-.09-8.04c14.36.12,31.74.18,52.13.18,18.81,0,35.39-.06,49.75-.18l-.18,3c-.06.73-.21,3.37-.46,7.92l-.55,9.92c-.12,2.12-.18,4.28-.18,6.46-11.75-.49-21.61-.73-29.58-.73-8.77,0-14.69.02-17.76.05-3.07.03-7.87.17-14.38.41l-1.11,21c7.18.18,15.56.27,25.12.27,3.41,0,12.48-.21,27.22-.64-.61,7.79-1.19,17.07-1.73,27.85-10.53-.12-18.62-.18-24.27-.18-8.4,0-17.79.21-28.2.64l-1.09,22.19h10.49c3.1,0,9.52-.09,19.25-.27l18.89-.46c2.8-.06,7.48-.3,14.05-.73-.73,9.01-1.34,18.32-1.83,27.94-14.85-.12-31.14-.18-48.85-.18l-40.18.09-12.97.09Z"/>
    <path class="cls-1" d="M851.3,236.15c1.16-10.71,2.08-20.36,2.75-28.95.67-8.58,1.25-18.54,1.74-29.86.49-11.32.85-23.27,1.1-35.84.24-12.57.37-22.57.37-30,7.61.18,13.75.27,18.44.27s10.8-.14,17.8-.41c7-.27,13.82-.41,20.45-.41,7.79,0,14.73.3,20.82.91,4.56.43,8.72,1.31,12.46,2.65,3.74,1.34,6.89,2.97,9.45,4.88,2.56,1.92,4.69,4.06,6.39,6.44s3.03,5.16,3.97,8.35c.94,3.2,1.42,6.62,1.42,10.27,0,4.08-.52,7.9-1.55,11.46-1.04,3.56-2.66,6.91-4.88,10.04-2.22,3.14-5.02,5.84-8.4,8.13-3.38,2.28-8.11,4.61-14.2,6.99l4.75,11.6c1.34,3.23,2.77,6.51,4.29,9.86l12.24,26.75c.55,1.16,1.52,3.44,2.92,6.85-10.04-.12-16.79-.18-20.26-.18-4.38,0-11.56.06-21.54.18-.98-3.16-2.74-9.04-5.3-17.62-1.04-3.59-1.92-6.36-2.65-8.31-1.46-4.32-3.63-10.38-6.49-18.17l-9.42-25.84c3.29.61,6.51.91,9.68.91,4.44,0,8.48-.67,12.1-2.01,3.62-1.34,6.36-3.41,8.22-6.21,1.86-2.8,2.79-5.75,2.79-8.86,0-2.62-.7-4.92-2.1-6.89-1.4-1.98-3.61-3.45-6.62-4.43-3.01-.97-7.66-1.46-13.92-1.46-2.13,0-4.34.04-6.62.14-2.28.09-4.95.17-7.99.23-.78,12.48-1.47,27.7-2.07,45.65s-.99,35.58-1.17,52.87c-10.18-.12-16.79-.18-19.84-.18-3.54,0-9.9.06-19.11.18Z"/>
  </g>
  <g>
    <path class="cls-2" d="M1051.48,233.93v-121.71h40.24c12.23,0,21.93,2.58,29.1,7.72,7.17,5.15,10.75,11.85,10.75,20.12,0,6.9-2.17,12.9-6.51,17.99s-10.32,8.71-17.95,10.86v.34c9.53.96,17.16,4.06,22.88,9.29,5.72,5.24,8.58,12.04,8.58,20.41,0,10.41-4.34,18.84-13.02,25.29-8.68,6.45-19.63,9.68-32.85,9.68h-41.23ZM1068.05,125.12v39.3h16.97c9.08,0,16.21-1.88,21.4-5.64,5.19-3.76,7.79-9.07,7.79-15.91,0-11.83-9.04-17.74-27.13-17.74h-19.04ZM1068.05,177.23v43.8h22.49c9.73,0,17.28-1.98,22.64-5.94,5.36-3.96,8.04-9.39,8.04-16.3,0-14.37-11.38-21.56-34.13-21.56h-19.04Z"/>
    <path class="cls-2" d="M1246.78,233.93h-16.18v-13.75h-.4c-6.71,10.52-17.1,15.79-31.17,15.79-24.07,0-36.1-12.33-36.1-37.01v-51.94h16.08v49.74c0,18.33,8.15,27.5,24.46,27.5,7.89,0,14.38-2.5,19.48-7.51,5.1-5.01,7.64-11.56,7.64-19.65v-50.08h16.18v86.91Z"/>
    <path class="cls-2" d="M1273.31,230.79v-14.94c8.81,5.6,18.51,8.4,29.1,8.4,14.2,0,21.31-4.07,21.31-12.22,0-2.32-.61-4.29-1.82-5.9-1.22-1.61-2.86-3.04-4.93-4.29-2.07-1.24-4.51-2.36-7.3-3.35-2.8-.99-5.8-2.02-9.03-3.1-4.47-1.53-8.4-3.07-11.79-4.63-3.39-1.55-6.21-3.31-8.48-5.26-2.27-1.95-3.98-4.17-5.13-6.66-1.15-2.49-1.73-5.4-1.73-8.74,0-4.07,1.08-7.68,3.25-10.82,2.17-3.14,5.06-5.77,8.68-7.89,3.62-2.12,7.74-3.72,12.38-4.8,4.64-1.07,9.42-1.61,14.35-1.61,8.74,0,16.57,1.3,23.48,3.9v14.09c-7.43-4.19-15.98-6.28-25.65-6.28-3.03,0-5.75.3-8.19.89-2.43.59-4.52,1.43-6.26,2.5-1.74,1.08-3.09,2.36-4.04,3.86-.95,1.5-1.43,3.16-1.43,4.97,0,2.26.48,4.16,1.43,5.69.95,1.53,2.35,2.88,4.19,4.07,1.84,1.19,4.08,2.26,6.71,3.22,2.63.96,5.62,2.01,8.98,3.14,4.47,1.47,8.48,2.99,12.03,4.54,3.55,1.56,6.57,3.31,9.07,5.26,2.5,1.95,4.42,4.2,5.77,6.75,1.35,2.55,2.02,5.57,2.02,9.08,0,4.3-1.1,8.04-3.3,11.2-2.2,3.17-5.15,5.8-8.83,7.89-3.68,2.09-7.93,3.65-12.72,4.67-4.8,1.02-9.83,1.53-15.09,1.53-10.39,0-19.4-1.73-27.03-5.18Z"/>
    <path class="cls-2" d="M1373.43,124.95c-2.89,0-5.36-.85-7.4-2.55-2.04-1.7-3.06-3.85-3.06-6.45s1.02-4.77,3.06-6.49c2.04-1.72,4.5-2.59,7.4-2.59s5.47.86,7.55,2.59c2.07,1.73,3.11,3.89,3.11,6.49s-1.04,4.61-3.11,6.37c-2.07,1.75-4.59,2.63-7.55,2.63ZM1381.32,233.93h-16.18v-86.91h16.18v86.91Z"/>
    <path class="cls-2" d="M1497.91,233.93h-16.18v-49.57c0-18.45-7.83-27.67-23.48-27.67-8.09,0-14.78,2.62-20.07,7.85-5.29,5.23-7.94,11.84-7.94,19.82v49.57h-16.18v-86.91h16.18v14.43h.39c7.63-10.98,18.67-16.47,33.14-16.47,11.05,0,19.5,3.07,25.35,9.21,5.85,6.14,8.78,15.01,8.78,26.61v53.13Z"/>
    <path class="cls-2" d="M1609.57,193.95h-71.31c.26,9.67,3.29,17.14,9.08,22.41,5.79,5.26,13.74,7.89,23.87,7.89,11.38,0,21.83-3.23,31.37-9.68v13.07c-8.88,5.55-20.62,8.32-35.21,8.32s-25.48-3.95-33.63-11.84c-8.15-7.89-12.23-19-12.23-33.31,0-13.52,4.45-24.54,13.37-33.06,8.91-8.52,19.97-12.77,33.19-12.77s23.44,3.68,30.68,11.03c7.23,7.36,10.85,17.57,10.85,30.64v7.3ZM1593,182.16c-.07-8.03-2.32-14.29-6.76-18.76-4.44-4.47-10.6-6.71-18.49-6.71s-14.11,2.35-19.43,7.05-8.61,10.84-9.86,18.42h54.55Z"/>
    <path class="cls-2" d="M1627.91,230.79v-14.94c8.81,5.6,18.51,8.4,29.1,8.4,14.2,0,21.31-4.07,21.31-12.22,0-2.32-.61-4.29-1.82-5.9-1.22-1.61-2.86-3.04-4.93-4.29-2.07-1.24-4.51-2.36-7.3-3.35-2.8-.99-5.8-2.02-9.03-3.1-4.47-1.53-8.4-3.07-11.79-4.63-3.39-1.55-6.21-3.31-8.48-5.26-2.27-1.95-3.98-4.17-5.13-6.66-1.15-2.49-1.73-5.4-1.73-8.74,0-4.07,1.08-7.68,3.25-10.82,2.17-3.14,5.06-5.77,8.68-7.89,3.62-2.12,7.74-3.72,12.38-4.8,4.64-1.07,9.42-1.61,14.35-1.61,8.74,0,16.57,1.3,23.48,3.9v14.09c-7.43-4.19-15.98-6.28-25.65-6.28-3.03,0-5.75.3-8.19.89-2.43.59-4.52,1.43-6.26,2.5-1.74,1.08-3.09,2.36-4.04,3.86-.95,1.5-1.43,3.16-1.43,4.97,0,2.26.48,4.16,1.43,5.69.95,1.53,2.35,2.88,4.19,4.07,1.84,1.19,4.08,2.26,6.71,3.22,2.63.96,5.62,2.01,8.98,3.14,4.47,1.47,8.48,2.99,12.03,4.54,3.55,1.56,6.57,3.31,9.07,5.26,2.5,1.95,4.42,4.2,5.77,6.75,1.35,2.55,2.02,5.57,2.02,9.08,0,4.3-1.1,8.04-3.3,11.2-2.2,3.17-5.15,5.8-8.83,7.89-3.68,2.09-7.93,3.65-12.72,4.67-4.8,1.02-9.83,1.53-15.09,1.53-10.39,0-19.4-1.73-27.03-5.18Z"/>
    <path class="cls-2" d="M1713.63,230.79v-14.94c8.81,5.6,18.51,8.4,29.1,8.4,14.2,0,21.31-4.07,21.31-12.22,0-2.32-.61-4.29-1.82-5.9-1.22-1.61-2.86-3.04-4.93-4.29-2.07-1.24-4.51-2.36-7.3-3.35-2.8-.99-5.8-2.02-9.03-3.1-4.47-1.53-8.4-3.07-11.79-4.63-3.39-1.55-6.21-3.31-8.48-5.26-2.27-1.95-3.98-4.17-5.13-6.66-1.15-2.49-1.73-5.4-1.73-8.74,0-4.07,1.08-7.68,3.25-10.82,2.17-3.14,5.06-5.77,8.68-7.89,3.62-2.12,7.74-3.72,12.38-4.8,4.64-1.07,9.42-1.61,14.35-1.61,8.74,0,16.57,1.3,23.48,3.9v14.09c-7.43-4.19-15.98-6.28-25.65-6.28-3.03,0-5.75.3-8.19.89-2.43.59-4.52,1.43-6.26,2.5-1.74,1.08-3.09,2.36-4.04,3.86-.95,1.5-1.43,3.16-1.43,4.97,0,2.26.48,4.16,1.43,5.69.95,1.53,2.35,2.88,4.19,4.07,1.84,1.19,4.08,2.26,6.71,3.22,2.63.96,5.62,2.01,8.98,3.14,4.47,1.47,8.48,2.99,12.03,4.54,3.55,1.56,6.57,3.31,9.07,5.26,2.5,1.95,4.42,4.2,5.77,6.75,1.35,2.55,2.02,5.57,2.02,9.08,0,4.3-1.1,8.04-3.3,11.2-2.2,3.17-5.15,5.8-8.83,7.89-3.68,2.09-7.93,3.65-12.72,4.67-4.8,1.02-9.83,1.53-15.09,1.53-10.39,0-19.4-1.73-27.03-5.18Z"/>
    <path class="cls-2" d="M1854.68,230.79v-14.94c8.81,5.6,18.51,8.4,29.1,8.4,14.2,0,21.31-4.07,21.31-12.22,0-2.32-.61-4.29-1.82-5.9-1.22-1.61-2.86-3.04-4.93-4.29-2.07-1.24-4.51-2.36-7.3-3.35-2.8-.99-5.8-2.02-9.03-3.1-4.47-1.53-8.4-3.07-11.79-4.63-3.39-1.55-6.21-3.31-8.48-5.26-2.27-1.95-3.98-4.17-5.13-6.66-1.15-2.49-1.73-5.4-1.73-8.74,0-4.07,1.08-7.68,3.25-10.82,2.17-3.14,5.06-5.77,8.68-7.89,3.62-2.12,7.74-3.72,12.38-4.8,4.64-1.07,9.42-1.61,14.35-1.61,8.74,0,16.57,1.3,23.48,3.9v14.09c-7.43-4.19-15.98-6.28-25.65-6.28-3.03,0-5.75.3-8.19.89-2.43.59-4.52,1.43-6.26,2.5-1.74,1.08-3.09,2.36-4.04,3.86-.95,1.5-1.43,3.16-1.43,4.97,0,2.26.48,4.16,1.43,5.69.95,1.53,2.35,2.88,4.19,4.07,1.84,1.19,4.08,2.26,6.71,3.22,2.63.96,5.62,2.01,8.98,3.14,4.47,1.47,8.48,2.99,12.03,4.54,3.55,1.56,6.57,3.31,9.07,5.26,2.5,1.95,4.42,4.2,5.77,6.75,1.35,2.55,2.02,5.57,2.02,9.08,0,4.3-1.1,8.04-3.3,11.2-2.2,3.17-5.15,5.8-8.83,7.89-3.68,2.09-7.93,3.65-12.72,4.67-4.8,1.02-9.83,1.53-15.09,1.53-10.39,0-19.4-1.73-27.03-5.18Z"/>
    <path class="cls-2" d="M2027.69,193.95h-71.31c.26,9.67,3.29,17.14,9.08,22.41,5.79,5.26,13.74,7.89,23.87,7.89,11.38,0,21.83-3.23,31.37-9.68v13.07c-8.88,5.55-20.62,8.32-35.21,8.32s-25.48-3.95-33.63-11.84c-8.15-7.89-12.23-19-12.23-33.31,0-13.52,4.45-24.54,13.37-33.06,8.91-8.52,19.97-12.77,33.19-12.77s23.44,3.68,30.68,11.03c7.23,7.36,10.85,17.57,10.85,30.64v7.3ZM2011.12,182.16c-.07-8.03-2.32-14.29-6.76-18.76-4.44-4.47-10.6-6.71-18.49-6.71s-14.11,2.35-19.43,7.05-8.61,10.84-9.86,18.42h54.55Z"/>
    <path class="cls-2" d="M2104.83,161.11c-2.83-1.87-6.91-2.8-12.23-2.8-6.91,0-12.68,2.8-17.31,8.4s-6.95,13.24-6.95,22.92v44.3h-16.18v-86.91h16.18v17.91h.39c2.3-6.11,5.82-10.88,10.55-14.3,4.74-3.42,10.03-5.14,15.88-5.14,4.21,0,7.43.4,9.67,1.19v14.43Z"/>
    <path class="cls-2" d="M2209.88,147.02l-40.24,86.91h-15.88l-38.27-86.91h17.75l25.65,63.15c1.91,4.64,3.09,8.69,3.55,12.14h.39c.66-4.36,1.71-8.29,3.16-11.8l26.83-63.49h17.06Z"/>
    <path class="cls-2" d="M2235.52,124.95c-2.89,0-5.36-.85-7.4-2.55-2.04-1.7-3.06-3.85-3.06-6.45s1.02-4.77,3.06-6.49c2.04-1.72,4.5-2.59,7.4-2.59s5.47.86,7.55,2.59c2.07,1.73,3.11,3.89,3.11,6.49s-1.04,4.61-3.11,6.37c-2.07,1.75-4.59,2.63-7.55,2.63ZM2243.41,233.93h-16.18v-86.91h16.18v86.91Z"/>
    <path class="cls-2" d="M2345.01,229.94c-7.76,4.02-16.97,6.03-27.62,6.03-14.4,0-26.03-4.03-34.87-12.09-8.85-8.06-13.27-18.52-13.27-31.36,0-14.31,4.77-25.82,14.3-34.5,9.53-8.68,22.26-13.03,38.17-13.03,8.88,0,16.7,1.42,23.48,4.24v14.26c-7.5-4.53-15.52-6.79-24.07-6.79-10.32,0-18.79,3.18-25.4,9.55-6.61,6.37-9.91,14.73-9.91,25.08s3.11,18.22,9.32,24.1c6.21,5.89,14.55,8.83,25.01,8.83,8.81,0,17.1-2.52,24.86-7.55v13.24Z"/>
    <path class="cls-2" d="M2450.65,193.95h-71.31c.26,9.67,3.29,17.14,9.08,22.41,5.79,5.26,13.74,7.89,23.87,7.89,11.38,0,21.83-3.23,31.37-9.68v13.07c-8.88,5.55-20.62,8.32-35.21,8.32s-25.48-3.95-33.63-11.84c-8.15-7.89-12.23-19-12.23-33.31,0-13.52,4.45-24.54,13.37-33.06,8.91-8.52,19.97-12.77,33.19-12.77s23.44,3.68,30.68,11.03c7.23,7.36,10.85,17.57,10.85,30.64v7.3ZM2434.08,182.16c-.07-8.03-2.32-14.29-6.76-18.76-4.44-4.47-10.6-6.71-18.49-6.71s-14.11,2.35-19.43,7.05c-5.33,4.7-8.61,10.84-9.86,18.42h54.55Z"/>
    <path class="cls-2" d="M2469,230.79v-14.94c8.81,5.6,18.51,8.4,29.1,8.4,14.2,0,21.31-4.07,21.31-12.22,0-2.32-.61-4.29-1.82-5.9-1.22-1.61-2.86-3.04-4.93-4.29-2.07-1.24-4.51-2.36-7.3-3.35-2.8-.99-5.8-2.02-9.03-3.1-4.47-1.53-8.4-3.07-11.79-4.63-3.39-1.55-6.21-3.31-8.48-5.26-2.27-1.95-3.98-4.17-5.13-6.66-1.15-2.49-1.73-5.4-1.73-8.74,0-4.07,1.08-7.68,3.25-10.82,2.17-3.14,5.06-5.77,8.68-7.89,3.62-2.12,7.74-3.72,12.38-4.8,4.64-1.07,9.42-1.61,14.35-1.61,8.74,0,16.57,1.3,23.48,3.9v14.09c-7.43-4.19-15.98-6.28-25.65-6.28-3.03,0-5.75.3-8.19.89-2.43.59-4.52,1.43-6.26,2.5-1.74,1.08-3.09,2.36-4.04,3.86-.95,1.5-1.43,3.16-1.43,4.97,0,2.26.48,4.16,1.43,5.69.95,1.53,2.35,2.88,4.19,4.07,1.84,1.19,4.08,2.26,6.71,3.22,2.63.96,5.62,2.01,8.98,3.14,4.47,1.47,8.48,2.99,12.03,4.54,3.55,1.56,6.57,3.31,9.07,5.26,2.5,1.95,4.42,4.2,5.77,6.75,1.35,2.55,2.02,5.57,2.02,9.08,0,4.3-1.1,8.04-3.3,11.2-2.2,3.17-5.15,5.8-8.83,7.89-3.68,2.09-7.93,3.65-12.72,4.67-4.8,1.02-9.83,1.53-15.09,1.53-10.39,0-19.4-1.73-27.03-5.18Z"/>
  </g>
</svg>